<svg fill="none" height="180" viewBox="0 0 248 180" width="248" xmlns="http://www.w3.org/2000/svg" xmlns:xlink="http://www.w3.org/1999/xlink"><linearGradient id="a" gradientUnits="userSpaceOnUse" x1="32.7949" x2="77.2381" y1="21.3301" y2="21.3301"><stop offset="0" stop-color="#c5221f"/><stop offset="1" stop-color="#ea4335"/></linearGradient><linearGradient id="b" gradientUnits="userSpaceOnUse" x1="212.958" x2="219.772" y1="55.7374" y2="56.01"><stop offset="0" stop-color="#e8f0fe"/><stop offset="1" stop-color="#f8f9fa"/></linearGradient><clipPath id="c"><path d="m0 7.93191c0-4.38067 3.55124-7.93191 7.93191-7.93191h239.10109v180h-247.033z"/></clipPath><mask id="d" height="36" maskUnits="userSpaceOnUse" width="36" x="105" y="101"><path d="m122.746 136.487c9.661 0 17.493-7.833 17.493-17.494s-7.832-17.494-17.493-17.494c-9.662 0-17.494 7.833-17.494 17.494s7.832 17.494 17.494 17.494z" fill="#fb0"/></mask><mask id="e" height="23" maskUnits="userSpaceOnUse" width="23" x="111" y="12"><path clip-rule="evenodd" d="m133.178 23.5234c-.004 2.105-.631 4.1617-1.803 5.9103s-2.836 3.1105-4.781 3.9138c-1.946.8032-4.086 1.0116-6.15.5989s-3.96-1.428-5.447-2.9176-2.499-3.3867-2.909-5.4514c-.409-2.0648-.198-4.2046.609-6.149.806-1.9444 2.171-3.6062 3.921-4.7753 1.751-1.1691 3.808-1.7931 5.913-1.7931 2.826.0027 5.535 1.1276 7.531 3.1273 1.997 1.9996 3.118 4.7104 3.116 7.5361z" fill="#f8f9fa" fill-rule="evenodd"/></mask><g clip-path="url(#c)"><path d="m14.4509 172.552c7.9811 0 14.451-.691 14.451-1.543s-6.4699-1.542-14.451-1.542c-7.981 0-14.4509.69-14.4509 1.542s6.4699 1.543 14.4509 1.543z" fill="#e37400"/><path d="m28.9019 166.515h-28.9019v4.489h28.9019z" fill="#e37400"/><path d="m14.4509 168.063c7.9811 0 14.451-.691 14.451-1.543s-6.4699-1.542-14.451-1.542c-7.981 0-14.4509.69-14.4509 1.542s6.4699 1.543 14.4509 1.543z" fill="#f29900"/><path d="m55.368 12.0011v-10.75972c-10.8472 0-21.2505 4.30721-28.9232 11.97482-7.6726 7.6677-11.9866 18.0682-11.9936 28.9154v124.7234" stroke="#ea8600" stroke-miterlimit="10" stroke-width="2.07962"/><path d="m55.3676 41.3711c4.932 0 8.9301-3.9981 8.9301-8.9301s-3.9981-8.9301-8.9301-8.9301-8.9301 3.9981-8.9301 8.9301 3.9981 8.9301 8.9301 8.9301z" fill="#ffc107"/><path clip-rule="evenodd" d="m32.7949 32.4409c0-5.8936 2.3412-11.5457 6.5086-15.7131 4.1673-4.1673 9.8195-6.5085 15.713-6.5085s11.5457 2.3412 15.713 6.5085c4.1674 4.1674 6.5086 9.8195 6.5086 15.7131z" fill="#f24336" fill-rule="evenodd"/><path clip-rule="evenodd" d="m32.7949 32.4409c0-5.8936 2.3412-11.5457 6.5086-15.7131 4.1673-4.1673 9.8195-6.5085 15.713-6.5085s11.5457 2.3412 15.713 6.5085c4.1674 4.1674 6.5086 9.8195 6.5086 15.7131z" fill="url(#a)" fill-rule="evenodd"/><path d="m59.5206 159.207c-.0308 3.434-1.4148 6.717-3.8514 9.137-2.4367 2.42-5.7295 3.781-9.1635 3.788h-.4361c-3.4341-.007-6.7268-1.368-9.1635-3.788s-3.8206-5.703-3.8514-9.137v-17.839h26.4659z" fill="#d2e3fc"/><g fill="#9aa0a6"><path d="m39.8265 162.01c.0705 0 .1382-.028.188-.078.0499-.05.0779-.118.0779-.188 0-.071-.028-.138-.0779-.188-.0498-.05-.1175-.078-.188-.078s-.1382.028-.1881.078c-.0498.05-.0779.117-.0779.188 0 .07.0281.138.0779.188.0499.05.1176.078.1881.078z"/><path d="m51.9945 165.276c.0705 0 .1381-.028.188-.078s.0779-.118.0779-.188c0-.071-.028-.138-.0779-.188s-.1175-.078-.188-.078c-.0706 0-.1382.028-.1881.078s-.0779.117-.0779.188c0 .07.028.138.0779.188s.1175.078.1881.078z"/><path d="m49.9202 152.213c.0706 0 .1382-.028.1881-.078.0498-.05.0779-.118.0779-.188 0-.071-.0281-.138-.0779-.188-.0499-.05-.1175-.078-.1881-.078-.0705 0-.1381.028-.188.078s-.0779.117-.0779.188c0 .07.028.138.0779.188s.1175.078.188.078z"/><path d="m48.139 157.856c.0705 0 .1382-.028.188-.078.0499-.05.0779-.117.0779-.188 0-.07-.028-.138-.0779-.188-.0498-.05-.1175-.078-.188-.078s-.1382.028-.1881.078c-.0498.05-.0779.118-.0779.188 0 .071.0281.138.0779.188.0499.05.1176.078.1881.078z"/><path d="m57.0413 155.776c.0706 0 .1382-.028.1881-.077.0498-.05.0779-.118.0779-.188 0-.071-.0281-.139-.0779-.188-.0499-.05-.1175-.078-.1881-.078-.0705 0-.1381.028-.188.078-.0499.049-.0779.117-.0779.188 0 .07.028.138.0779.188.0499.049.1175.077.188.077z"/><path d="m37.7601 152.825c.0705 0 .1381-.028.188-.078s.0779-.118.0779-.188c0-.071-.028-.138-.0779-.188s-.1175-.078-.188-.078c-.0706 0-.1382.028-.1881.078-.0498.05-.0779.117-.0779.188 0 .07.0281.138.0779.188.0499.05.1175.078.1881.078z"/><path d="m36.264 146.277c.0705 0 .1382-.028.188-.078.0499-.05.0779-.117.0779-.188 0-.07-.028-.138-.0779-.188-.0498-.05-.1175-.078-.188-.078s-.1382.028-.1881.078c-.0498.05-.0779.118-.0779.188 0 .071.0281.138.0779.188.0499.05.1176.078.1881.078z"/><path d="m43.389 153.404c.0705 0 .1382-.028.188-.078.0499-.049.0779-.117.0779-.188 0-.07-.028-.138-.0779-.188-.0498-.049-.1175-.078-.188-.078s-.1382.029-.1881.078c-.0498.05-.0779.118-.0779.188 0 .071.0281.139.0779.188.0499.05.1176.078.1881.078z"/><path d="m57.0413 145.979c.0706 0 .1382-.028.1881-.077.0498-.05.0779-.118.0779-.188 0-.071-.0281-.139-.0779-.189-.0499-.049-.1175-.077-.1881-.077-.0705 0-.1381.028-.188.077-.0499.05-.0779.118-.0779.189 0 .07.028.138.0779.188.0499.049.1175.077.188.077z"/><path d="m46.9476 146.575c.0705 0 .1381-.028.188-.078s.0779-.117.0779-.188c0-.07-.028-.138-.0779-.188s-.1175-.078-.188-.078c-.0706 0-.1382.028-.1881.078-.0498.05-.0779.118-.0779.188 0 .071.0281.138.0779.188.0499.05.1175.078.1881.078z"/><path d="m43.1878 169.632c.0705 0 .1382-.028.1881-.078.0498-.05.0778-.118.0778-.188 0-.071-.028-.138-.0778-.188-.0499-.05-.1176-.078-.1881-.078s-.1382.028-.188.078c-.0499.05-.0779.117-.0779.188 0 .07.028.138.0779.188.0498.05.1175.078.188.078z"/><path d="m45.8616 163.994c.0706 0 .1382-.028.1881-.078s.0779-.117.0779-.188c0-.07-.028-.138-.0779-.188s-.1175-.078-.1881-.078c-.0705 0-.1381.028-.188.078s-.0779.118-.0779.188c0 .071.028.138.0779.188s.1175.078.188.078z"/><path d="m55.6605 161.021c.0705 0 .1381-.028.188-.078s.0779-.117.0779-.188-.028-.138-.0779-.188-.1175-.078-.188-.078c-.0706 0-.1382.028-.1881.078s-.0779.117-.0779.188.028.138.0779.188.1175.078.1881.078z"/><path d="m35.3734 158.351c.0705 0 .1381-.028.188-.078s.0779-.118.0779-.188c0-.071-.028-.138-.0779-.188s-.1175-.078-.188-.078c-.0706 0-.1382.028-.1881.078s-.0779.117-.0779.188c0 .07.028.138.0779.188s.1175.078.1881.078z"/><path d="m54.8128 149.171c.0705 0 .1382-.028.1881-.078.0498-.05.0778-.118.0778-.188 0-.071-.028-.138-.0778-.188-.0499-.05-.1176-.078-.1881-.078s-.1382.028-.188.078c-.0499.05-.0779.117-.0779.188 0 .07.028.138.0779.188.0498.05.1175.078.188.078z"/><path d="m42.5941 149.048c.0705 0 .1381-.028.188-.078s.0779-.117.0779-.188c0-.07-.028-.138-.0779-.188s-.1175-.078-.188-.078c-.0706 0-.1382.028-.1881.078s-.0779.118-.0779.188c0 .071.028.138.0779.188s.1175.078.1881.078z"/></g><path d="m59.522 141.368c0 .245-.3404.479-.9521.692-1.9573.659-6.7122 1.154-12.2968 1.154-5.5847 0-10.3077-.495-12.2331-1.154-.6169-.213-.952-.447-.952-.692-.0266-1.021 5.8984-1.84 13.1851-1.84 7.2866 0 13.2489.819 13.2489 1.84z" fill="#4285f4"/><path d="m58.569 142.06c-1.9573.659-6.7123 1.154-12.2969 1.154s-10.3077-.495-12.233-1.154c1.9519-.686 6.7175-1.165 12.2809-1.165 5.5633 0 10.2917.479 12.249 1.165z" fill="#1967d2"/><path d="m37.8262 117.79c5.3667 6.41 8.2042 14.562 7.978 22.919" stroke="#0d652d" stroke-miterlimit="10" stroke-width=".845675"/><path d="m47.5855 97.3823c-5.7282 12.7647-3.1912 31.1147-1.2339 45.4267" stroke="#0d652d" stroke-miterlimit="10" stroke-width=".845675"/><path d="m54.4147 113.302c-5.356 6.85-8.7067 21.716-8.0419 29.912" stroke="#0d652d" stroke-miterlimit="10" stroke-width=".845675"/><path d="m56.8705 127.332c-1.0638-1.67-3.5476-1.931-5.3188-1.005-1.7711.925-2.8508 2.723-3.6273 4.537-1.5433 3.618-2.0941 7.581-1.5956 11.483" stroke="#0d652d" stroke-miterlimit="10" stroke-width=".845675"/><path d="m50.7821 126.721c-1.0638 1.175-.3138 3.191 1.0212 4.047 1.335.857 2.9997.931 4.5687 1.144 4.3261.591 8.3893 2.42 11.7012 5.265.2287-2.92.4415-5.951-.5851-8.691-1.0265-2.739-3.6752-5.111-6.5898-4.824-2.436.24-3.1913 2.766-5.0847 3.266-1.6861.447-3.2604-2.165-5.0315-.207z" fill="#34a853"/><path d="m33.6699 128.795c3.2037 1.013 6.07 2.882 8.2903 5.404s3.7104 5.602 4.3097 8.909" stroke="#0d652d" stroke-miterlimit="10" stroke-width=".845675"/><path d="m40.6504 93.7496c3.5529 2.4679 3.3933 30.1414 3.5529 35.5984" stroke="#0d652d" stroke-miterlimit="10" stroke-width=".845675"/><path clip-rule="evenodd" d="m29.465 112.934c-.2798-1.082-.6226-2.148-1.0265-3.191-.8989-2.026-2.5211-3.627-4.106-5.175-1.585-1.548-3.1913-3.159-4.0689-5.1964-1.4892-3.505-2.0796-8.1855 1.2819-9.9566 1.3409-.7207 2.9028-.9141 4.3789-.5421 1.4762.372 2.7599 1.2824 3.5991 2.5525 1.4839 2.2711.8563 5.0209 2.537 7.1484 1.2499 1.5952 3.7231 1.9092 4.7869 3.6222 1.0637 1.712.2127 4.122.8935 6.079.4681 1.335 1.5956 2.314 2.6594 3.266 2.9785 2.712 1.2924 8.696-3.4891 8.568-2.8402-.074-5.2389-2.563-6.6856-5.35-.3096-.584-.5642-1.194-.7606-1.825z" fill="#34a853" fill-rule="evenodd"/><path clip-rule="evenodd" d="m51.5918 74.2088c3.6646-7.978 10.2492-14.9775 18.7165-17.2326-2.1753 2.6062-2.037 6.3824-1.6966 9.7545s.6808 7.0792-1.218 9.8928c-2.2232 3.2923-6.9728 4.4571-8.5578 8.1004-1.2339 2.8402-.0798 6.2974-1.3297 9.1376-1.1222 2.5423-3.8454 3.9092-6.3824 5.0793-1.7658.8981-3.5785 1.7002-5.4304 2.4042.2712-1.867.585-3.7977.7765-5.6965.2447-2.4944.5319-4.9889.9786-7.4462.7636-4.8255 2.1565-9.5301 4.1433-13.9935z" fill="#34a853" fill-rule="evenodd"/><path clip-rule="evenodd" d="m33.508 76.9482c0 2.8242-.7765 5.6325-.5053 8.4461.4947 5.0953 4.4358 9.7279 9.4195 10.8927 0 0 1.1488-6.9143-1.4148-12.233-2.0158-4.1859-5.5315-10.446-8.8929-13.701-.1702 1.9253 1.3935 2.404 1.3935 6.5952z" fill="#34a853" fill-rule="evenodd"/><path clip-rule="evenodd" d="m35.2631 132.427c-.7181-.473-1.5111-.822-2.3456-1.031-1.4254-.261-2.8455.361-4.255.702-1.4094.34-3.154.292-3.9943-.889-.27-.433-.4153-.932-.42-1.442-.0047-.511.1314-1.013.3934-1.451.546-.868 1.3335-1.557 2.2658-1.984 1.153-.574 2.4097-.91 3.6952-.988 1.2856-.079 2.5738.102 3.7882.531 2.053.739 4.7868 2.739 5.6644 4.85.1902.423.2064.903.0452 1.337-.1613.434-.4871.787-.9068.982-1.3137.761-2.7498.064-3.9305-.617z" fill="#34a853" fill-rule="evenodd"/><path clip-rule="evenodd" d="m61.839 115.53c-1.2871 1.952-2.6593 3.989-4.7496 5.053-1.1476.587-2.4386.835-3.722.715-1.2834-.119-2.5064-.602-3.5259-1.39-1.0196-.789-1.7937-1.851-2.2319-3.064-.4382-1.212-.5224-2.524-.2428-3.782.6968-3.149 3.4466-5.319 5.6857-7.664 2.9924-3.127 5.2588-6.8755 6.6378-10.9781 1.2924-3.8507 1.8137-8.0312 3.9571-11.483 1.3964-2.1841 3.3649-3.9433 5.6915-5.0865 2.3266-1.1431 4.9221-1.6263 7.5042-1.3971 2.8349.2926 5.7017 1.5957 7.2228 4.0103 1.5212 2.4147 1.2606 5.9942-1.0105 7.7175-1.6275 1.2339-3.9093 1.351-5.4996 2.6328-1.2658 1.0318-1.8987 2.6593-2.1913 4.2549-.2925 1.5956-.3085 3.2551-.6276 4.856-.3577 1.7142-1.0495 3.3402-2.0361 4.7872-.9865 1.446-2.2483 2.684-3.7134 3.643-1.1169.729-2.5689.979-3.5582 1.856-1.4733 1.33-2.5051 3.675-3.5902 5.319z" fill="#34a853" fill-rule="evenodd"/><path d="m78.675 82.7558c-2.9625 2.1275-5.3666 4.8613-7.7441 7.5845-2.3774 2.7232-4.5741 5.6166-6.8026 8.478-3.1912 4.3717-5.9835 9.0417-8.7386 13.7327-.9241 1.551-1.7673 3.149-2.5264 4.787.3068-.856.6619-1.694 1.0637-2.51 3.5504-7.379 7.9928-14.293 13.2277-20.5891 3.5103-4.1273 6.9887-8.478 11.5362-11.5043z" fill="#188038"/><path d="m25.0605 94.7497c.4023 1.5371.9527 3.0316 1.6435 4.4624 1.1223 2.3779 2.3722 4.7549 3.7231 7.0049 1.5762 2.757 3.339 5.403 5.2762 7.919.6435.846 1.3509 1.628 2.0743 2.41-4.9783-4.255-11.7012-15.323-12.7171-21.807z" fill="#188038"/><path d="m57.0215 127.114c3.8029-.489 7.7387 2.479 8.5099 6.202-.1606-.438-.3769-.852-.6435-1.234-.8373-1.377-1.9815-2.542-3.3433-3.404s-2.9043-1.397-4.5072-1.564z" fill="#188038"/><path d="m27.6934 128.125c3.4678-1.697 8.7226-.335 10.4193 3.271-2.3562-3.08-6.7601-4.165-10.4193-3.271z" fill="#188038"/><path d="m62.5367 64.1565c-8.5099 6.5207-11.0523 18.174-13.2968 28.1147l-.9254 4.4624c.1914-1.5106.4308-3.0104.6701-4.5103 1.7871-9.93 4.6113-22.1365 13.5308-28.0668z" fill="#188038"/><path d="m37.2578 82.2562c2.2286 3.1912 3.8082 6.8664 3.9199 10.7757-.4512-1.8584-1.0034-3.6907-1.6541-5.4889-.6489-1.8084-1.5584-3.4944-2.2658-5.2868z" fill="#188038"/><path d="m158.139 180.172c49.095 0 88.893-3.655 88.893-8.165 0-4.509-39.798-8.165-88.893-8.165-49.094 0-88.8929 3.656-88.8929 8.165 0 4.51 39.7989 8.165 88.8929 8.165z" fill="#d2e3fc"/><path d="m115.004 154.658s1.916 14.446 2.465 19.575c.118 1.067.31 1.991 1.537 1.991 1.228 0 1.42-.902 1.537-1.991.534-5.129 2.466-19.575 2.466-19.575z" fill="#e37400"/><path d="m73.1211 150.362s.7631 13.341.8645 18.475c0 1.094.1335 2.012 1.3609 2.135s1.4889-.774 1.7024-1.852c.9926-5.059 4.0505-18.049 4.0505-18.049z" fill="#e37400"/><path d="m234.574 152.592s1.911 14.447 2.466 19.575c.117 1.067.309 1.991 1.537 1.991 1.227 0 1.419-.897 1.537-1.991.533-5.128 2.465-19.575 2.465-19.575z" fill="#e37400"/><path d="m192.693 148.296s.758 13.342.865 18.481c0 1.094.133 2.006 1.355 2.134 1.223.129 1.495-.773 1.703-1.846.998-5.065 4.05-18.049 4.05-18.049z" fill="#e37400"/><path d="m202.782 151.194s-3.656-39.711-3.202-52.8922c.064-1.9746-3.997-10.6094-1.548-12.1624 5.124-3.2447 13.342.8859 16.304 7.4714 1.51 3.202 4.76 12.7542 10.14 14.8092 7.743 2.946 12.274.849 16.672 7.471 4.568 5.631 1.483 38.67 1.483 38.67l-4.755.134z" fill="#4285f4"/><path d="m195.852 150.895s-.357-43.344.107-56.8194c.069-2.0226 10.396-3.6022 11.986-.3148s5.625 15.0922 11.255 17.1792c8.064 2.988 11.261-.844 16.693 5.539 5.294 6.324 1.991 38.205 1.991 38.205z" fill="#185abc"/><path d="m98.1791 140.958 113.1379-6.617s.95-51.8836-24.741-52.6574c-29.096-.9072-25.702 12.0289-45.421 8.2292-22.99-4.4295-50.2712-15.5244-57.4704-1.0994-7.1992 14.4246 14.4945 52.1446 14.4945 52.1446z" fill="#1967d2"/><path d="m106.303 153.788 8.763.869h123.715c0-16.442-20.424-31.027-66.239-29.773-44.866 1.222-64.249 9.606-64.249 26.054z" fill="#4285f4"/><path d="m122.746 136.486c9.661 0 17.493-7.832 17.493-17.493 0-9.662-7.832-17.494-17.493-17.494-9.662 0-17.494 7.832-17.494 17.494 0 9.661 7.832 17.493 17.494 17.493z" fill="#fb0"/><g fill="#f29900" mask="url(#d)"><path d="m128.225 98.9165h-10.945s-1.9 4.2055-.534 10.0385c.919 3.881 3.01 7.385 5.988 10.038 2.978-2.653 5.068-6.157 5.988-10.038 1.403-5.833-.497-10.0385-.497-10.0385z"/><path d="m102.678 113.512v10.957s4.205 1.899 10.033.533c3.88-.921 7.384-3.011 10.038-5.987-2.653-2.979-6.157-5.069-10.038-5.988-5.828-1.409-10.033.485-10.033.485z"/><path d="m117.28 139.065h10.951s1.9-4.206.534-10.039c-.921-3.879-3.011-7.381-5.988-10.033-2.993 2.646-5.099 6.149-6.031 10.033-1.371 5.833.534 10.039.534 10.039z"/><path d="m142.819 124.469v-10.956s-4.205-1.895-10.033-.534c-3.881.919-7.385 3.01-10.038 5.988 2.655 2.976 6.158 5.066 10.038 5.987 5.839 1.415 10.033-.485 10.033-.485z"/></g><path d="m122.747 120.882c1.043 0 1.889-.846 1.889-1.889s-.846-1.889-1.889-1.889c-1.044 0-1.89.846-1.89 1.889s.846 1.889 1.89 1.889z" fill="#e37400"/><path d="m79.967 151.172s-3.6556-39.715-3.202-52.8915c.0694-1.98-.9072-9.019-.6084-12.4932.5337-.3469 3.3888-.5977 4.216-.3202 2.0813.6937 4.0932-.3683 10.2198 9.0243 4.4881 8.2716 5.6675 11.8426 11.0686 13.8756 3.874 1.467 8.197 1.601 11.879 3.394 2.074 1.003 3.786 2.626 4.899 4.643 1.18 2.135 1.148 4.269 1.356 6.607.379 4.205.4 8.453.411 12.674 0 6.294-.13 12.584-.39 18.871v.101h-4.75z" fill="#4285f4"/><path d="m73.0404 150.869s-1.0834-43.174-.5924-56.6489c.0427-2.0226-.5337-6.1319 2.0226-7.7062 5.3367-3.3194 9.2004 3.8744 10.6734 7.2259 2.3588 5.4114 5.6302 15.0872 11.255 17.1732 4.061 1.505 8.373 1.735 12.2 3.779 4.589 2.454 6.569 6.644 6.937 11.489.337 4.617.534 9.19.406 13.833 0 .875-.683 14.66-.843 14.644z" fill="#185abc"/><path clip-rule="evenodd" d="m182.578 64.9644c2.455 1.4836 5.379 2.1987 6.511 1.9052 2.844-.7311 3.106-11.127.907-15.2309s-13.48-5.881-14.073 2.2361c-.203 2.8231.982 5.3367 2.733 7.3913l-3.138 14.6118h9.109z" fill="#935435" fill-rule="evenodd"/><path clip-rule="evenodd" d="m173.802 55.219c-3.122-5.31-8.934-9.7928-15.237-6.2439-3.89 2.188-4.536 7.1565-8.688 8.1437-3.655 1.0033-6.292-2.5509-12.05.1174-3.624 1.6811-6.938 6.879-4.803 12.7387 1.105 3.0953 3.314 5.9771 6.521 7.0498 3.304 1.11 7.168.048 9.777-2.1614 2.21-1.8678 3.309-4.6749 4.67-7.1618 1.198-2.28 2.606-4.4435 4.205-6.4627 3.843-4.6483 9.169-7.1352 15.199-6.0999l.432.0801c.219.0427.246-.1601.369-.3362-.032-.0054-.39.3362-.395.3362z" fill="#181658" fill-rule="evenodd"/><path clip-rule="evenodd" d="m186.654 47.0381c-1.452-.7209-3.051-1.0996-4.672-1.107-1.622-.0074-3.224.3567-4.683 1.0643-1.213.5483-2.273 1.3849-3.088 2.437-.814 1.0521-1.359 2.2877-1.587 3.5988-.282 1.5554-.193 3.1555.262 4.6696.72 2.3161 5.043 5.0272 6.724 3.8104 1.067-.7738.859-2.4869.496-3.202-.534-.982-.219-1.601.416-1.9372.811-.4483 1.447.5817 1.473.5763.299 0 6.404-1.0673 8.736-4.9844.726-1.2328-2.108-3.9492-4.077-4.9258z" fill="#181658" fill-rule="evenodd"/><path d="m213.226 127.414c3.373.459 7.023.63 10.14 2.556 1.638 1.004.533 1.916-.817 1.943-3.493-.042-6.976-.365-10.417-.966-1.222-.24-.587-2.556 1.094-3.533z" fill="#935435"/><path d="m209.344 128.273c.256.897.733 1.716 1.387 2.38.254.305.608.51.998.577 2.45.432 10.919 3.255 13.091 1.553.142-.129.258-.284.34-.457s.129-.361.138-.552c.009-.192-.019-.383-.084-.563-.064-.181-.164-.346-.292-.488-.956-1.217-2.973-2.364-3.496-2.61-.416-.197-1.911 1.783-1.911 1.783-1.027.053-2.057.053-3.084 0-2.065-.262-5.951-.748-7.087-1.623z" fill="#f19a20"/><path d="m213.021 152.464c.502 3.202 1.02 6.436 1.5 9.606.272 1.788 1.532 2.669 3.293 1.601.091-2.903.091-5.763.373-8.677.269-2.308.23-4.641-.117-6.938-.149-.752.155-.88-.614-.987-.768-.107-1.99 1.201-2.375 1.692-.896 1.179-1.019 3.079-2.06 3.703z" fill="#935435"/><path d="m217.894 161.404c1.9 2.823 4.195 5.662 4.851 9.291.342 1.889-1.067 1.67-1.995.683-2.291-2.637-4.367-5.453-6.207-8.421-.672-1.089 1.5-2.156 3.351-1.553z" fill="#935435"/><path d="m214.406 161.03c-.5.787-.794 1.689-.854 2.62-.06.392.022.793.23 1.131 1.307 2.135 5.267 11.074 8.005 11.565.64.117 1.003-1.105 1.174-2.055.272-1.521-.213-3.794-.374-4.344-.133-.443-2.604-.24-2.604-.24-.723-.732-1.409-1.499-2.054-2.3-1.18-1.724-3.4-4.942-3.523-6.377z" fill="#f19a20"/><path d="m126.948 86.2015c.271-1.0593-1.617-2.4585-4.218-3.1253-2.601-.6669-4.93-.3488-5.201.7104-.272 1.0592 1.617 2.4585 4.218 3.1253 2.6.6669 4.929.3488 5.201-.7104z" fill="#935435"/><path d="m219.126 62.8549c.9-2.3886.815-4.6315-.189-5.0097s-2.547 1.2516-3.447 3.6402c-.899 2.3886-.815 4.6315.189 5.0096 1.004.3782 2.547-1.2516 3.447-3.6401z" fill="#935435"/><path d="m142.53 85.2064c-3.154-.2134-13.31.5337-16.464.3416-1.104-.0747-2.604.7578-2.375 1.2541.123.2615 4.526.9339 6.074 1.2488 1.179.2455 12.738 2.0546 12.738 2.0546s.966-1.4943.998-2.0706c.043-.7472-.971-2.8285-.971-2.8285z" fill="#935435"/><path d="m209.977 75.3177c1.296-2.8819 6.59-11.3458 6.59-11.3458l.598.2721-3.736 13.4858z" fill="#935435"/><path d="m166.009 117.162c-.48-3.826-.613-4.696 3.432-11.308 2.641-4.323 2.231-6.8525 2.231-6.8525s8.165-.8485 13.645-.8485c5.086 0 5.561.635 5.561.635s.214 8.795-.592 9.51c-4.125 3.309-24.277 8.864-24.277 8.864z" fill="#3c4043"/><path d="m209.974 75.3177c-.811 1.2915-2.316 3.3888-3.57 4.9845-.401.5114-.978.855-1.618.9636-.641.1085-1.299-.0257-1.845-.3766-5.679-3.6289-7.301-6.1211-10.332-7.6314-6.212-3.1006-18.044-5.0485-23.001-1.601-8.795 6.1425-14.826 12.2744-27.079 13.5338.154 1.6294.154 3.2697 0 4.8991 7.248 2.092 25.494-1.3235 30.846-6.4361-.613 4.2694-.533 14.1689-3.298 17.8304.534-.187 4.408-.812 10.743-1.895 3.341-.4862 6.71-.7589 10.086-.8165-.032-4.7604-.443-10.4546.096-15.4764 1.036.4323 5.214 3.4155 7.835 4.3494 3.559 1.2648 8.245 1.2594 8.245 1.2594 1.067-.2615 3.773-3.7356 5.123-7.0977.595-1.4551 1.058-2.9608 1.382-4.4989z" fill="#f24336"/><path d="m216.357 63.7153-3.596-2.188c-.137-.0715-.246-.1846-.314-.3229-.067-.1383-.088-.2944-.06-.4456l2.962-12.1036c.047-.1175.119-.2228.213-.308.094-.0851.205-.1478.327-.1833.121-.0355.249-.0428.374-.0215.124.0213.243.0708.345.1446l3.597 2.188c.136.0706.245.1827.313.3201.067.1374.088.2926.061.4431l-2.973 12.1089c-.047.1159-.12.2196-.212.3036-.093.0839-.203.1459-.323.1813s-.247.0432-.37.023c-.124-.0201-.241-.0679-.344-.1397z" fill="#9aa0a6"/><path d="m216.593 63.9073-3.597-2.188c-.135-.0722-.245-.1854-.312-.3235s-.088-.2939-.061-.445l2.962-12.1036c.046-.1176.119-.2229.213-.308.093-.0851.205-.1478.326-.1833.122-.0355.25-.0429.374-.0216.125.0214.243.0708.346.1446l3.597 2.1881c.136.0705.245.1827.312.3201.068.1373.089.2926.061.443l-2.961 12.109c-.047.1175-.12.2228-.214.3079-.093.0852-.205.1479-.326.1834-.122.0355-.25.0428-.374.0215-.125-.0213-.243-.0708-.346-.1446z" fill="#9aa0a6"/><path d="m216.597 63.3467c-.081-.0071-.16-.0326-.23-.0747l-3.602-2.1828c-.042-.0196-.077-.0504-.103-.089-.025-.0387-.039-.0835-.041-.1298l2.962-12.1089c0-.0747.144-.1334.283-.1281.081.0043.16.0281.229.0694l3.603 2.188c.041.0197.077.0505.102.0891.026.0386.04.0835.042.1297l-2.962 12.1036c-.022.0801-.144.1388-.283.1335z" fill="url(#b)"/><path d="m222.085 100.293c-.171 5.31-2.786 18.678-2.786 18.678s-8.506-1.638-8.859-2.135c-1.371-2.711 0-15.754 0-15.754-1.894 2.178-3.169 5.588-7.156 10.508-1.601 1.959-12.093 3.907-15.012 3.955-2.167.032-5.177.144-6.233-1.985-.248-.449-.375-.954-.369-1.467.006-.512.144-1.015.401-1.458.242-.748.386-1.525.427-2.311 1.398-2.535 10.278-10.8652 13.096-12.9571 2.199-1.6331 7.919-7.8236 13.731-10.0063 13.459-3.2501 13.016 6.8469 12.76 14.9324z" fill="#3c4043"/><path d="m220.574 122.728c-.411-2.641-2.108-6.169-6.084-7.402-2.481-.768-8.966-3.057-12.274-4.039-5.438-1.601-8.395-2.317-14.265-3.976-4.226-1.256-8.703-1.412-13.006-.454-2.62.646-5.283 1.697-7.049 3.832-.9 1.135-1.508 2.473-1.773 3.897-.265 1.423-.179 2.89.252 4.273.429 1.23 1.11 2.357 2.001 3.307s1.97 1.704 3.17 2.211c2.102.94 4.403 1.26 6.671 1.511 4.691.533 16.714.251 23.983 1.75 1.52.317 2.91 1.085 3.988 2.204 1.077 1.118 1.793 2.536 2.053 4.067.64 3.735.534 7.935 1.329 11.244 1.227 5.251 3.25 8.816 3.453 9.041.41.458 4.13.741 5.87-2.765 3.906-8.005 3.234-18.78 1.681-28.701z" fill="#3c4043"/><path clip-rule="evenodd" d="m136.033 23.5237c-.005 2.669-.8 5.2768-2.286 7.4937-1.487 2.2169-3.597 3.9436-6.064 4.9617-2.467 1.0182-5.181 1.2822-7.798.7586s-5.02-1.8112-6.906-3.7001c-1.886-1.889-3.169-4.2945-3.688-6.9126s-.25-5.3313.772-7.7967c1.023-2.4654 2.753-4.5724 4.972-6.0548 2.22-1.4823 4.829-2.2735 7.498-2.2735 3.583.0063 7.016 1.4338 9.548 3.9693 2.531 2.5355 3.952 5.9718 3.952 9.5544z" fill="#4285f4" fill-rule="evenodd"/><path clip-rule="evenodd" d="m133.18 23.5235c-.004 2.105-.631 4.1617-1.803 5.9103s-2.836 3.1106-4.781 3.9138c-1.946.8032-4.086 1.0116-6.15.5989s-3.96-1.428-5.447-2.9176-2.5-3.3867-2.909-5.4514c-.409-2.0648-.198-4.2046.609-6.149.806-1.9444 2.171-3.6062 3.921-4.7753 1.751-1.1691 3.808-1.7931 5.913-1.7931 2.826.0027 5.535 1.1276 7.531 3.1273 1.997 1.9997 3.118 4.7104 3.116 7.5361z" fill="#f8f9fa" fill-rule="evenodd"/><g mask="url(#e)"><path clip-rule="evenodd" d="m130.123 15.0882s-8.036 2.2246-10.186 1.6736c-2.151-.5511-1.883-.9163-1.883-.9163l8.036-2.7047z" fill="#e8f0fe" fill-rule="evenodd"/><path clip-rule="evenodd" d="m110.998 23.1245s4.338-4.4257 9.382-3.7765c5.217.6694 6.028 5.8388 9.003 6.1161 4.734.4361 7.777-1.5756 7.777-1.5756s.27 6.5286-6.975 6.5286c-4.838 0-5.646-3.9151-10.67-5.592-3.469-1.1597-8.517-1.7006-8.517-1.7006z" fill="#d2e3fc" fill-rule="evenodd"/><path d="m110.998 23.1247s5.132-5.4973 12.31-5.4973 13.145 6.3358 13.145 6.3358-.595 3.4655-5.616 3.4655c-2.613 0-5.747-3.5669-9.737-4.8415-3.668-1.1732-8.212-.0778-10.102.5375z" fill="#e8f0fe"/><path d="m127.803 33.8388s-3.827-3.2592-9.169-3.4182c-5.342-.1589-7.935 2.8333-7.935 2.8333s9.538 2.2719 12.449 1.7952c1.59-.2384 3.15-.6441 4.655-1.2103z" fill="#e8f0fe"/><g fill="#d2e3fc"><path d="m107.891 27.4281c3.604-1.4531 7.63-1.4531 11.234 0 4.247 1.7615 9.68 5.3757 9.68 5.3757l-2.272.5984c-1.872-1.6809-4.296-2.6167-6.813-2.6303-4.182 0-7.776.3583-7.776.3583z"/><path d="m111.953 15.1185s4.422 2.3903 9.68 1.4335c5.257-.9568 7.171-4.4222 7.171-4.4222s-9.805-.2401-12.55.8351c-1.505.5651-2.947 1.287-4.301 2.1536z"/></g></g><path d="m122.622 13.8815.413 10.3558-.751-.4362c0 .0271 5.964-2.9042 5.947-2.7858l-6.241 4.1991.037-.9704.413-10.3557z" fill="#202124"/></g></svg>